# xmcd CD database file
#
# Track frame offsets:
#	150
#	18474
#	35472
#	53841
#	64206
#	82080
#	101084
#	124173
#	137198
#	154464
#
# Disc length: 2269 seconds
#
# Revision: 0
# Processed by: cddbd v1.4PL0 Copyright (c) Steve Scherf et al.
# Submitted via: CDex 1.40Release
#
DISCID=8f08db0a
DTITLE=Stephanie Urbina Jones - Live from the River
DYEAR=2001
DGENRE=Country
TTITLE0=Ay Ay Ay
TTITLE1=I Am Home
TTITLE2=He Reminds Me of Texas
TTITLE3=Ring of Fire
TTITLE4=River of Love
TTITLE5=Earthquake
TTITLE6=Velvet Rope
TTITLE7=Left of Center
TTITLE8=Tour of My Heart
TTITLE9=God Loves it When We Dance
EXTD=YEAR: 2001 ID3G: 2
EXTT0=
EXTT1=
EXTT2=
EXTT3=
EXTT4=
EXTT5=
EXTT6=
EXTT7=
EXTT8=
EXTT9=
PLAYORDER=
